<svg width="18" height="23" viewBox="0 0 18 23" fill="none" xmlns="http://www.w3.org/2000/svg">
<path d="M9 13.286C11.4175 13.286 13.5814 13.8268 15.123 14.6747C16.6825 15.5324 17.4999 16.636 17.5 17.7362C17.5 18.8365 16.6827 19.9409 15.123 20.7987C13.5814 21.6466 11.4174 22.1864 9 22.1864C6.58257 22.1864 4.41864 21.6466 2.87695 20.7987C1.31726 19.9409 0.5 18.8365 0.5 17.7362C0.500097 16.636 1.31748 15.5324 2.87695 14.6747C4.41864 13.8268 6.58254 13.286 9 13.286ZM9 1.1864C11.8411 1.1864 14.125 3.43551 14.125 6.1864C14.125 8.93729 11.8411 11.1864 9 11.1864C6.15889 11.1864 3.875 8.93729 3.875 6.1864C3.875 3.43551 6.15889 1.1864 9 1.1864Z" fill="#7B7B7B" stroke="black"/>
</svg>
